<?xml version="1.0" encoding="UTF-8" standalone="no"?>
<!-- Created with Inkscape (http://www.inkscape.org/) -->

<svg
   xmlns:dc="http://purl.org/dc/elements/1.1/"
   xmlns:cc="http://creativecommons.org/ns#"
   xmlns:rdf="http://www.w3.org/1999/02/22-rdf-syntax-ns#"
   xmlns:svg="http://www.w3.org/2000/svg"
   xmlns="http://www.w3.org/2000/svg"
   xmlns:sodipodi="http://sodipodi.sourceforge.net/DTD/sodipodi-0.dtd"
   xmlns:inkscape="http://www.inkscape.org/namespaces/inkscape"
   width="298.79266"
   height="229.78433"
   viewBox="0 0 79.055559 60.797106"
   version="1.1"
   id="svg8"
   inkscape:version="0.92.4 (5da689c313, 2019-01-14)"
   sodipodi:docname="dataForgeIcon.svg">
  <defs
     id="defs2" />
  <sodipodi:namedview
     id="base"
     pagecolor="#ffffff"
     bordercolor="#666666"
     borderopacity="1.0"
     inkscape:pageopacity="0.0"
     inkscape:pageshadow="2"
     inkscape:zoom="0.98994949"
     inkscape:cx="316.81003"
     inkscape:cy="133.35354"
     inkscape:document-units="mm"
     inkscape:current-layer="layer1"
     showgrid="false"
     inkscape:window-width="1920"
     inkscape:window-height="1009"
     inkscape:window-x="-8"
     inkscape:window-y="523"
     inkscape:window-maximized="1"
     fit-margin-top="10"
     fit-margin-left="10"
     fit-margin-right="10"
     fit-margin-bottom="10"
     units="px" />
  <metadata
     id="metadata5">
    <rdf:RDF>
      <cc:Work
         rdf:about="">
        <dc:format>image/svg+xml</dc:format>
        <dc:type
           rdf:resource="http://purl.org/dc/dcmitype/StillImage" />
        <dc:title></dc:title>
      </cc:Work>
    </rdf:RDF>
  </metadata>
  <g
     inkscape:label="Layer 1"
     inkscape:groupmode="layer"
     id="layer1"
     transform="translate(-35.065504,-142.46076)">
    <path
       style="fill:#ffffff;stroke-width:0.26458335"
       d="m 72.533631,200.35064 c -0.218281,-0.14153 -1.200547,-0.56684 -2.182812,-0.94512 -1.244262,-0.47918 -1.785938,-0.82556 -1.785938,-1.14203 0,-0.24983 -0.343725,-0.98356 -0.763831,-1.63051 -1.64937,-2.53998 -3.153212,-3.62589 -5.79763,-4.18639 -1.700488,-0.36043 -5.424463,-0.38916 -6.603756,-0.0509 -0.70872,0.20326 -1.204914,0.10519 -2.842524,-0.56178 l -1.983926,-0.80803 v -2.19265 c 0,-2.08628 0.05354,-2.28687 1.103523,-4.13458 1.355999,-2.3862 1.514709,-3.15634 1.545223,-7.49816 0.03729,-5.30578 -0.577894,-7.2976 -3.305822,-10.7035 -1.610867,-2.01121 -2.85532,-3.17755 -8.161226,-7.64892 -3.880224,-3.26993 -3.881699,-3.2716 -3.881699,-4.3987 0,-0.62014 -0.06148,-1.46983 -0.136611,-1.8882 -0.129762,-0.72254 0.08957,-0.92649 4.374738,-4.06797 2.481242,-1.81901 4.667039,-3.34217 4.857326,-3.38479 0.299354,-0.067 5.209878,1.72737 10.351423,3.78266 0.873125,0.34903 3.01625,1.18822 4.7625,1.86487 1.74625,0.67666 4.782344,1.86418 6.746875,2.63894 1.964532,0.77476 5.179219,2.02308 7.143751,2.77405 7.828648,2.99261 11.783867,4.60068 11.982881,4.87187 0.114906,0.15658 0.141918,0.84009 0.06002,1.51892 l -0.1489,1.23423 0.99831,0.32263 c 0.549072,0.17744 1.623388,0.55332 2.387373,0.8353 1.339993,0.49456 1.389062,0.54797 1.389062,1.5119 v 0.99924 l 4.564067,1.85965 c 2.51023,1.02281 5.576092,2.30219 6.813022,2.84306 1.23693,0.54088 2.96333,1.28265 3.83646,1.64838 2.60182,1.08986 3.89747,1.93573 3.56978,2.33057 -0.53599,0.64583 -4.6385,2.20954 -7.53892,2.87353 -4.942342,1.13146 -7.129022,1.31122 -13.960642,1.14769 -3.458459,-0.0828 -6.226657,-0.0511 -6.151553,0.0704 0.0751,0.12152 0.780767,0.58452 1.568141,1.02889 l 1.431589,0.80793 0.183163,1.95463 c 0.10074,1.07504 0.141131,2.1403 0.08976,2.36724 -0.120102,0.53056 -13.431703,14.22242 -13.822191,14.21704 -0.161771,-0.002 -0.472725,-0.11985 -0.691007,-0.26138 z M 110.573,175.96021 c -0.11737,-0.35211 -0.084,-0.34081 -4.83416,-1.63945 -6.498052,-1.7765 -14.293191,-3.6026 -15.378544,-3.6026 -1.483561,0 -2.480831,0.79717 -2.480831,1.98306 0,1.02322 0.02868,1.0368 4.415761,2.09063 3.700162,0.88883 8.403264,1.33871 14.987014,1.43361 2.52133,0.0364 3.36853,-0.0319 3.29076,-0.26525 z m -23.171661,-4.91133 c 0.817806,-0.95227 0.775817,-1.05979 -0.301572,-0.77222 -0.740532,0.19766 -1.310508,0.18701 -2.042014,-0.0381 -2.022888,-0.62264 -2.025688,-0.60925 0.69982,-3.34897 1.850451,-1.8601 2.369661,-2.52139 1.979647,-2.52139 -0.717529,0 -6.19065,5.48136 -5.662856,5.67139 1.14073,0.4107 4.391006,1.42388 4.639614,1.44627 0.159348,0.0143 0.468659,-0.18227 0.687361,-0.43694 z m -4.147947,-5.38664 3.170865,-3.20384 -2.500929,1.68248 -2.500929,1.68249 -2.526155,-0.0293 c -2.238576,-0.026 -2.947839,-0.16699 -6.230321,-1.23859 -2.037292,-0.66508 -4.835261,-1.62667 -6.217709,-2.13685 -3.825113,-1.41164 -8.885731,-3.295 -11.244792,-4.18488 -1.164166,-0.43914 -3.069166,-1.13733 -4.233333,-1.55153 -1.164167,-0.41419 -3.955484,-1.41087 -6.202927,-2.21483 -2.247443,-0.80397 -4.124069,-1.42395 -4.170279,-1.37774 -0.115933,0.11594 1.981433,0.97766 11.034664,4.5337 4.292865,1.6862 8.638646,3.41164 9.657292,3.83431 1.018646,0.42266 4.173802,1.67791 7.011459,2.78944 2.837656,1.11152 6.588125,2.59776 8.334375,3.30275 1.74625,0.70498 3.236391,1.28954 3.311427,1.29902 0.07504,0.01 1.563317,-1.4245 3.307292,-3.18661 z"
       id="path4529"
       inkscape:connector-curvature="0"
       sodipodi:nodetypes="ccssscccscscsscscccsscccccsccccccccccscccccsssccccccsscccccccccccccccscccccc" />
  </g>
</svg>
